<svg width="68" height="88" viewBox="0 0 68 88" fill="none" xmlns="http://www.w3.org/2000/svg">
<g clip-path="url(#clip0_29_1503)">
<path d="M35.2278 53.5447C44.0054 53.5447 51.1211 46.5277 51.1211 37.8719C51.1211 29.216 44.0054 22.1991 35.2278 22.1991C26.4501 22.1991 19.3344 29.216 19.3344 37.8719C19.3344 46.5277 26.4501 53.5447 35.2278 53.5447Z" fill="#F89924"/>
<path d="M24.9256 45.6038C25.0278 45.5054 24.9978 45.2897 25.0323 45.1537C25.0778 44.9745 25.1378 44.7986 25.2423 44.6449C25.8067 43.8165 26.9745 43.1662 27.9856 43.5478C28.5745 43.7701 29.2256 44.4624 29.3511 45.0873L29.44 45.5308C29.44 45.5308 29.4834 45.7454 29.4845 45.752C29.5345 45.9997 30.1167 45.9522 30.2878 45.95C30.7167 45.9422 31.1423 45.9289 31.5723 45.9289C32.8678 45.9278 34.1634 45.9301 35.46 45.9301C36.7645 45.9301 38.07 45.9301 39.3745 45.9301C39.3789 45.9301 39.4678 45.9301 39.4678 45.9301C39.5178 45.5341 39.5389 45.1227 39.6911 44.7489C39.86 44.3352 40.1867 43.9935 40.58 43.7789C41.0278 43.5345 41.5534 43.4648 42.0567 43.4825C42.9178 43.5135 43.4567 44.0477 43.88 44.7312L43.9245 45.2631L44.0134 45.7509C44.5434 45.8128 45.0323 45.9035 45.5378 45.6624C45.5989 45.6336 45.6589 45.6005 45.7089 45.5551C45.7467 45.5208 45.7778 45.481 45.8089 45.4401C45.8878 45.3395 45.9667 45.2377 46.0445 45.1371C46.0745 45.0984 46.1056 45.0596 46.1278 45.0154C46.2389 44.7986 46.2178 44.4403 46.2411 44.1981L46.33 43.3111C46.2267 42.7692 46.1434 42.2239 46.0523 41.6798C45.9645 41.1556 45.5623 40.9244 45.2167 40.5605C44.7611 40.0816 44.2211 39.6061 43.6989 39.1858C43.1289 38.7257 42.5645 38.4393 41.8623 38.2457C41.3211 38.0964 40.7489 37.9493 40.1811 37.8774C39.5823 37.8011 39.0411 37.9018 38.4489 37.9117C38.2189 37.915 37.9889 37.9195 37.7589 37.9228C37.1223 37.9327 36.5011 37.9316 35.8723 38.05C35.4389 38.1307 34.9978 38.0931 34.56 38.1108C33.7445 38.144 32.92 38.4459 32.2167 38.8485C31.7634 39.1073 31.34 39.4147 30.9289 39.7355C30.5289 40.0474 30.1045 40.221 29.6545 40.4555C29.1323 40.7275 28.5189 40.7651 27.9411 40.7928C27.2945 40.8238 26.7389 41.025 26.11 41.1533C25.7756 41.2219 25.2911 41.254 25.0145 41.4575C24.9223 41.5249 24.8423 41.6079 24.75 41.6743C24.6111 41.7727 24.4489 41.8324 24.3023 41.9198C23.8678 42.1775 23.5489 42.778 23.5489 43.2846C23.5489 43.2846 23.4634 43.9459 23.4611 43.9647C23.4411 44.1196 23.5178 44.2412 23.4823 44.4016C23.4667 44.4713 23.3211 45.1503 23.46 45.1537C23.5411 45.1548 23.6311 45.345 23.6867 45.3959C23.7978 45.4976 23.9511 45.5573 24.0956 45.5916C24.3267 45.648 24.5967 45.6967 24.8311 45.6502C24.8723 45.6425 24.9023 45.627 24.9256 45.6038Z" fill="white"/>
<path d="M27.1533 47.2218C28.0536 47.2218 28.7833 46.5455 28.7833 45.7111C28.7833 44.8767 28.0536 44.2003 27.1533 44.2003C26.2531 44.2003 25.5233 44.8767 25.5233 45.7111C25.5233 46.5455 26.2531 47.2218 27.1533 47.2218Z" fill="white"/>
<path d="M41.7422 47.2218C42.6424 47.2218 43.3722 46.5455 43.3722 45.7111C43.3722 44.8767 42.6424 44.2003 41.7422 44.2003C40.842 44.2003 40.1122 44.8767 40.1122 45.7111C40.1122 46.5455 40.842 47.2218 41.7422 47.2218Z" fill="white"/>
<path d="M33.7978 38.8474L36.72 38.6295L36.62 40.826L31.1344 41.0439L31.0944 40.45L33.7978 38.8474Z" fill="#F89924"/>
<path d="M37.6144 38.5908L37.7933 40.826L43.2389 40.6877L43.2789 40.3902L41.39 38.8673L40.7744 38.6494L40.1177 38.551L37.6144 38.5908Z" fill="#F89924"/>
<path d="M30.0967 39.3396C30.0833 39.2091 31.54 38.3995 31.7144 38.2989C32.2678 37.9781 32.8622 37.7614 33.47 37.5656L33.6144 37.4793L33.5856 36.8467L38.2089 36.7317C39.0511 36.3888 39.6744 36.1278 40.3256 35.4775C41.7367 34.0674 42.3433 32.2304 41.95 30.254C41.6811 28.9058 40.86 27.6826 39.6622 26.9825C38.1789 26.1165 36.53 26.2802 34.8844 26.2681C33.6233 26.2581 32.3611 26.2493 31.1 26.2393C30.7533 26.2371 30.4067 26.2338 30.06 26.2316C30.0633 27.7335 30.0667 29.2365 30.07 30.7384C30.0756 33.114 30.08 35.4897 30.0856 37.8653C30.0856 38.3453 30.0467 38.8684 30.0967 39.3396Z" fill="#FFFFFC"/>
<path d="M33.6422 33.855C33.6422 33.8539 33.6711 29.1956 33.6711 29.1956C33.6711 29.1956 36.7033 29.3106 36.7055 29.3106C38.3711 29.3736 39.4633 31.5911 38.4811 32.957C37.8544 33.8285 36.7744 33.8882 35.7989 33.8783C35.64 33.8749 33.6422 33.8561 33.6422 33.855Z" fill="#F89924"/>
<path d="M12.0233 55.9922H17.1056V57.5229H13.8578V59.1442H16.6233V60.6749H13.8578V62.5351H17.23V64.0658H12.0233V55.9922Z" fill="#395455"/>
<path d="M18.69 57.9199H20.1822L20.3144 58.6985H20.36C20.88 58.202 21.5022 57.7717 22.3433 57.7717C23.6856 57.7717 24.2589 58.7151 24.2589 60.2502V64.0658H22.43V60.4836C22.43 59.5988 22.1911 59.3223 21.6633 59.3223C21.2033 59.3223 20.9233 59.5347 20.52 59.9195V64.0658H18.6911V57.9199H18.69Z" fill="#395455"/>
<path d="M25.4911 60.9945C25.4911 58.9849 26.7522 57.7706 28.0522 57.7706C28.7333 57.7706 29.1489 58.0227 29.5656 58.4121L29.5 57.4808V55.3872H31.3289V64.0647H29.8367L29.7044 63.4553H29.6589C29.2222 63.8899 28.6122 64.2129 28.0167 64.2129C26.4822 64.214 25.4911 63.0018 25.4911 60.9945ZM29.4989 62.1735V59.6496C29.1756 59.361 28.8122 59.2603 28.4778 59.2603C27.8856 59.2603 27.3656 59.8045 27.3656 60.9735C27.3656 62.1801 27.7845 62.7231 28.4922 62.7231C28.8822 62.7242 29.1967 62.5771 29.4989 62.1735Z" fill="#395455"/>
<path d="M32.58 60.9945C32.58 59.0005 34.0089 57.7706 35.4922 57.7706C37.2511 57.7706 38.1222 59.0425 38.1222 60.7203C38.1222 61.0487 38.0811 61.3761 38.0456 61.5254H34.3522C34.5167 62.4168 35.13 62.826 35.9533 62.826C36.42 62.826 36.84 62.6845 37.2889 62.4235L37.8933 63.5217C37.2611 63.9575 36.4345 64.214 35.7033 64.214C33.9433 64.214 32.58 63.0295 32.58 60.9945ZM36.56 60.321C36.56 59.6453 36.2645 59.1586 35.5345 59.1586C34.9567 59.1586 34.4578 59.5446 34.3333 60.321H36.56Z" fill="#395455"/>
<path d="M39.3856 57.9199H40.8778L41.01 58.9938H41.0556C41.5044 58.1732 42.18 57.7717 42.81 57.7717C43.1633 57.7717 43.3678 57.8171 43.5467 57.8956L43.2422 59.4672C43.0222 59.413 42.8411 59.3677 42.5756 59.3677C42.11 59.3677 41.5444 59.6663 41.2156 60.5046V64.0658H39.3867V57.9199H39.3856Z" fill="#395455"/>
<path d="M44.0544 62.3615C44.0544 61.0664 45.09 60.3663 47.5311 60.1098C47.4944 59.5722 47.2255 59.2217 46.5544 59.2217C46.0366 59.2217 45.52 59.4384 44.9211 59.7769L44.2711 58.5813C45.0544 58.1046 45.9377 57.7728 46.9077 57.7728C48.4866 57.7728 49.36 58.6709 49.36 60.5532V64.0669H47.8677L47.7355 63.4376H47.69C47.17 63.8922 46.5877 64.2162 45.8933 64.2162C44.7689 64.214 44.0544 63.3967 44.0544 62.3615ZM47.5311 62.2797V61.2058C46.23 61.3805 45.8055 61.751 45.8055 62.2155C45.8055 62.6115 46.0789 62.805 46.5133 62.805C46.9277 62.8061 47.2066 62.6015 47.5311 62.2797Z" fill="#395455"/>
<path d="M50.35 63.3558L51.1733 62.2222C51.7322 62.6435 52.2489 62.8681 52.7655 62.8681C53.31 62.8681 53.5455 62.6612 53.5455 62.3394C53.5455 61.9346 52.9333 61.751 52.2978 61.5033C51.5411 61.2113 50.6644 60.7114 50.6644 59.6961C50.6644 58.5525 51.5989 57.7728 53.0233 57.7728C53.9689 57.7728 54.6733 58.1533 55.1989 58.5514L54.38 59.6452C53.9411 59.3278 53.5078 59.121 53.08 59.121C52.6078 59.121 52.3744 59.3057 52.3744 59.6121C52.3744 60.0036 52.9522 60.154 53.5922 60.3851C54.3744 60.6727 55.2555 61.1107 55.2555 62.2343C55.2555 63.3458 54.3744 64.2162 52.72 64.2162C51.9066 64.214 50.9755 63.8634 50.35 63.3558Z" fill="#395455"/>
<path d="M56.05 60.9945C56.05 59.0005 57.4789 57.7706 58.9622 57.7706C60.7211 57.7706 61.5922 59.0425 61.5922 60.7203C61.5922 61.0487 61.5511 61.3761 61.5156 61.5254H57.8222C57.9867 62.4168 58.6 62.826 59.4233 62.826C59.89 62.826 60.31 62.6845 60.7589 62.4235L61.3633 63.5217C60.7311 63.9575 59.9045 64.214 59.1733 64.214C57.4133 64.214 56.05 63.0295 56.05 60.9945ZM60.0289 60.321C60.0289 59.6453 59.7334 59.1586 59.0034 59.1586C58.4256 59.1586 57.9267 59.5446 57.8022 60.321H60.0289Z" fill="#395455"/>
</g>
<defs>
<clipPath id="clip0_29_1503">
<rect width="68" height="87.5933" fill="white"/>
</clipPath>
</defs>
</svg>

