<svg width="32" height="29" viewBox="0 0 32 29" fill="none" xmlns="http://www.w3.org/2000/svg">
<path d="M15.6758 1C23.8557 1.00005 30.3516 7.11617 30.3516 14.5C30.3516 21.8838 23.8557 27.9999 15.6758 28C7.49579 28 1 21.8839 1 14.5C1 7.11614 7.49579 1 15.6758 1Z" stroke="#11E4FB" stroke-width="2"/>
<path d="M19.4741 14.1962C20.6574 14.1962 21.6167 15.1555 21.6167 16.3389C21.6167 17.9332 20.9611 19.2105 19.8853 20.074C18.8264 20.9239 17.4072 21.3385 15.903 21.3385C14.3987 21.3385 12.9795 20.9239 11.9207 20.074C10.8448 19.2105 10.1892 17.9332 10.1892 16.3389C10.1892 15.2252 11.0389 14.3099 12.1255 14.2061L12.3318 14.1962H19.4741ZM15.903 7.05402C17.4808 7.05402 18.7599 8.33309 18.7599 9.91091C18.7599 11.4887 17.4808 12.7678 15.903 12.7678C14.3251 12.7678 13.0461 11.4887 13.0461 9.91091C13.0461 8.33309 14.3251 7.05402 15.903 7.05402Z" fill="#262524"/>
</svg>

